<svg id="Layer_1" data-name="Layer 1" xmlns="http://www.w3.org/2000/svg" viewBox="0 0 1080 1080"><path d="M363.25,556q9.17,12.91,9.17,30.9,0,41.57-34.26,62.54t-88.2,21H104.73a5,5,0,0,1-4.88-5.95l50.44-252.2a5,5,0,0,1,4.88-4H290q46.07,0,70,16.29t24,46.25q0,22.11-12.36,38.76t-34.45,26Q354.06,543.09,363.25,556Zm-86.7,46.44q8.24-6.18,8.24-17.79,0-8.24-6.18-12.73t-15.54-4.5H206.15l-8.24,41.2h56.92Q268.32,608.62,276.55,602.44ZM225.62,470.05,217.75,509h44.94q29.22,0,29.22-22.84c0-5.25-2-9.24-6-12s-9.73-4.12-17.22-4.12Z"/><path d="M566.33,409.6H479.67a5,5,0,0,0-3.39,1.34l-94.12,87.75a5,5,0,0,0-1.35,5.16l52.72,164.43a5,5,0,0,0,4.74,3.46h86.1a5,5,0,0,0,4.27-7.53L449.85,532.55a5,5,0,0,1,.92-6.23l118.9-108.06A5,5,0,0,0,566.33,409.6Z"/><path d="M975.27,409.6a5,5,0,0,1,4.86,6L950,557.72q-12.45,60-47,86.86t-97.47,26.89a120.71,120.71,0,0,1-40.78-6.59,93.1,93.1,0,0,1-28.82-16.18,4.88,4.88,0,0,0-5.89-.32q-34.12,23.08-80,23.09-31.45,0-56.14-11t-38.58-31.63q-13.91-20.65-13.9-49.19a132.16,132.16,0,0,1,2.93-25.61l29.88-140.52a5,5,0,0,1,4.87-3.94h74a5,5,0,0,1,4.87,6L626.65,568a40.84,40.84,0,0,0-1.1,9.15q0,24.51,34.38,24.5,19.38,0,29.81-10.24t14.81-31.82l31-146a5,5,0,0,1,4.87-3.94h73.94a5,5,0,0,1,4.87,6L787.94,562.48a73.65,73.65,0,0,0-1.47,11.34q0,13.15,7.87,20.48t23.22,7.31q21.57,0,32.55-10.24t15.36-31.82l31-146a5,5,0,0,1,4.87-3.94Z"/></svg>