<?xml version="1.0" encoding="utf-8"?>
<!-- Generator: Adobe Illustrator 26.0.1, SVG Export Plug-In . SVG Version: 6.00 Build 0)  -->
<svg version="1.1" id="Layer_1" xmlns="http://www.w3.org/2000/svg" xmlns:xlink="http://www.w3.org/1999/xlink" x="0px" y="0px"
	 viewBox="0 0 1080 1080" style="enable-background:new 0 0 1080 1080;" xml:space="preserve">
<style type="text/css">
	.st0{fill:#2252FF;}
</style>
<g>
	<path class="st0" d="M6.3,541.1c0.5,294.1,241,533.5,535.1,532.7c294.2-0.8,533-240.9,532.4-535.4
		c-0.6-293.9-241.4-533-535.7-532.1C244.4,7.2,5.7,247.2,6.3,541.1z M539.8,109.6c236.6-0.4,429.2,191.8,430.6,429.7
		c1.4,236.3-192.6,430.8-430.3,431.2c-236.6,0.4-429-191.5-430.6-429.7C108,304.5,302.1,110,539.8,109.6z"/>
	<path class="st0" d="M574.1,540c-58.8,66.2-117.1,131.8-176,198.1c25.9,23.1,51,45.4,77.1,68.6c79-88.9,157.7-177.4,237.1-266.7
		c-79.1-89-157.7-177.5-237.1-266.7c-25.8,22.9-50.9,45.2-77.2,68.6C456.7,407.8,514.9,473.3,574.1,540z"/>
</g>
</svg>
