<?xml version="1.0" encoding="utf-8"?>
<!-- Generator: Adobe Illustrator 26.0.1, SVG Export Plug-In . SVG Version: 6.00 Build 0)  -->
<svg version="1.1" id="Layer_1" xmlns="http://www.w3.org/2000/svg" xmlns:xlink="http://www.w3.org/1999/xlink" x="0px" y="0px"
	 viewBox="0 0 1080 1080" style="enable-background:new 0 0 1080 1080;" xml:space="preserve">
<style type="text/css">
	.st0{fill:#2252FF;}
</style>
<g>
	<path class="st0" d="M1073.7,541.1c-0.5,294.1-241,533.5-535.1,532.7c-294.2-0.8-533-240.9-532.4-535.4
		C6.9,244.4,247.6,5.3,541.9,6.3C835.6,7.2,1074.3,247.2,1073.7,541.1z M540.2,109.6C303.5,109.1,111,301.3,109.6,539.3
		C108.2,775.6,302.2,970,539.8,970.4c236.6,0.4,429-191.5,430.6-429.7C972,304.5,777.9,110,540.2,109.6z"/>
	<path class="st0" d="M505.9,540c58.8,66.2,117.1,131.8,176,198.1c-25.9,23.1-51,45.4-77.1,68.6c-79-88.9-157.7-177.4-237.1-266.7
		c79.1-89,157.7-177.5,237.1-266.7c25.8,22.9,50.9,45.2,77.2,68.6C623.3,407.8,565.1,473.3,505.9,540z"/>
</g>
</svg>
